<mxfile host="Electron" modified="2024-07-24T11:05:08.858Z" agent="Mozilla/5.0 (Windows NT 10.0; Win64; x64) AppleWebKit/537.36 (KHTML, like Gecko) draw.io/24.2.5 Chrome/120.0.6099.109 Electron/28.1.0 Safari/537.36" etag="YCqaoL3CEDzyXIXgEMsd" version="24.2.5" type="device" pages="8">
  <diagram id="HQwCBL1ggfVV_5SzUmb9" name="ecc_decoder">
    <mxGraphModel dx="740" dy="2006" grid="1" gridSize="10" guides="1" tooltips="1" connect="1" arrows="1" fold="1" page="1" pageScale="1" pageWidth="827" pageHeight="1169" math="0" shadow="0">
      <root>
        <mxCell id="0" />
        <mxCell id="1" parent="0" />
        <mxCell id="9kV_0fhqUF1c1HFAQR6I-1" value="&lt;b&gt;&lt;font style=&quot;font-size: 20px;&quot;&gt;ecc_decoder&lt;/font&gt;&lt;/b&gt;" style="rounded=1;whiteSpace=wrap;html=1;movable=0;resizable=0;rotatable=0;deletable=0;editable=0;locked=1;connectable=0;" parent="1" vertex="1">
          <mxGeometry x="310" y="220" width="300" height="400" as="geometry" />
        </mxCell>
        <mxCell id="9kV_0fhqUF1c1HFAQR6I-2" value="" style="endArrow=classic;html=1;rounded=0;" parent="1" edge="1">
          <mxGeometry relative="1" as="geometry">
            <mxPoint x="210" y="270" as="sourcePoint" />
            <mxPoint x="310" y="270" as="targetPoint" />
          </mxGeometry>
        </mxCell>
        <mxCell id="9kV_0fhqUF1c1HFAQR6I-3" value="data_0" style="edgeLabel;html=1;align=center;verticalAlign=middle;resizable=0;points=[];fontStyle=1;fontSize=12;" parent="9kV_0fhqUF1c1HFAQR6I-2" vertex="1" connectable="0">
          <mxGeometry x="-0.1467" y="-3" relative="1" as="geometry">
            <mxPoint y="-13" as="offset" />
          </mxGeometry>
        </mxCell>
        <mxCell id="9kV_0fhqUF1c1HFAQR6I-4" value="" style="endArrow=classic;html=1;rounded=0;" parent="1" edge="1">
          <mxGeometry relative="1" as="geometry">
            <mxPoint x="210" y="310" as="sourcePoint" />
            <mxPoint x="310" y="310" as="targetPoint" />
          </mxGeometry>
        </mxCell>
        <mxCell id="9kV_0fhqUF1c1HFAQR6I-5" value="data_1" style="edgeLabel;html=1;align=center;verticalAlign=middle;resizable=0;points=[];fontStyle=1;fontSize=12;" parent="9kV_0fhqUF1c1HFAQR6I-4" vertex="1" connectable="0">
          <mxGeometry x="-0.1467" y="-3" relative="1" as="geometry">
            <mxPoint y="-13" as="offset" />
          </mxGeometry>
        </mxCell>
        <mxCell id="9kV_0fhqUF1c1HFAQR6I-6" value="" style="endArrow=classic;html=1;rounded=0;" parent="1" edge="1">
          <mxGeometry relative="1" as="geometry">
            <mxPoint x="210" y="350" as="sourcePoint" />
            <mxPoint x="310" y="350" as="targetPoint" />
          </mxGeometry>
        </mxCell>
        <mxCell id="9kV_0fhqUF1c1HFAQR6I-7" value="data_2" style="edgeLabel;html=1;align=center;verticalAlign=middle;resizable=0;points=[];fontStyle=1;fontSize=12;" parent="9kV_0fhqUF1c1HFAQR6I-6" vertex="1" connectable="0">
          <mxGeometry x="-0.1467" y="-3" relative="1" as="geometry">
            <mxPoint y="-13" as="offset" />
          </mxGeometry>
        </mxCell>
        <mxCell id="9kV_0fhqUF1c1HFAQR6I-8" value="" style="endArrow=classic;html=1;rounded=0;" parent="1" edge="1">
          <mxGeometry relative="1" as="geometry">
            <mxPoint x="210" y="390" as="sourcePoint" />
            <mxPoint x="310" y="390" as="targetPoint" />
          </mxGeometry>
        </mxCell>
        <mxCell id="9kV_0fhqUF1c1HFAQR6I-9" value="data_3" style="edgeLabel;html=1;align=center;verticalAlign=middle;resizable=0;points=[];fontStyle=1;fontSize=12;" parent="9kV_0fhqUF1c1HFAQR6I-8" vertex="1" connectable="0">
          <mxGeometry x="-0.1467" y="-3" relative="1" as="geometry">
            <mxPoint y="-13" as="offset" />
          </mxGeometry>
        </mxCell>
        <mxCell id="9kV_0fhqUF1c1HFAQR6I-10" value="" style="endArrow=classic;html=1;rounded=0;" parent="1" edge="1">
          <mxGeometry relative="1" as="geometry">
            <mxPoint x="210" y="430" as="sourcePoint" />
            <mxPoint x="310" y="430" as="targetPoint" />
          </mxGeometry>
        </mxCell>
        <mxCell id="9kV_0fhqUF1c1HFAQR6I-11" value="data_4" style="edgeLabel;html=1;align=center;verticalAlign=middle;resizable=0;points=[];fontStyle=1;fontSize=12;" parent="9kV_0fhqUF1c1HFAQR6I-10" vertex="1" connectable="0">
          <mxGeometry x="-0.1467" y="-3" relative="1" as="geometry">
            <mxPoint y="-13" as="offset" />
          </mxGeometry>
        </mxCell>
        <mxCell id="9kV_0fhqUF1c1HFAQR6I-12" value="" style="endArrow=classic;html=1;rounded=0;" parent="1" edge="1">
          <mxGeometry relative="1" as="geometry">
            <mxPoint x="210" y="470" as="sourcePoint" />
            <mxPoint x="310" y="470" as="targetPoint" />
          </mxGeometry>
        </mxCell>
        <mxCell id="9kV_0fhqUF1c1HFAQR6I-13" value="data_5" style="edgeLabel;html=1;align=center;verticalAlign=middle;resizable=0;points=[];fontStyle=1;fontSize=12;" parent="9kV_0fhqUF1c1HFAQR6I-12" vertex="1" connectable="0">
          <mxGeometry x="-0.1467" y="-3" relative="1" as="geometry">
            <mxPoint y="-13" as="offset" />
          </mxGeometry>
        </mxCell>
        <mxCell id="9kV_0fhqUF1c1HFAQR6I-14" value="" style="endArrow=classic;html=1;rounded=0;" parent="1" edge="1">
          <mxGeometry relative="1" as="geometry">
            <mxPoint x="210" y="510" as="sourcePoint" />
            <mxPoint x="310" y="510" as="targetPoint" />
          </mxGeometry>
        </mxCell>
        <mxCell id="9kV_0fhqUF1c1HFAQR6I-15" value="data_6" style="edgeLabel;html=1;align=center;verticalAlign=middle;resizable=0;points=[];fontStyle=1;fontSize=12;" parent="9kV_0fhqUF1c1HFAQR6I-14" vertex="1" connectable="0">
          <mxGeometry x="-0.1467" y="-3" relative="1" as="geometry">
            <mxPoint y="-13" as="offset" />
          </mxGeometry>
        </mxCell>
        <mxCell id="9kV_0fhqUF1c1HFAQR6I-16" value="" style="endArrow=classic;html=1;rounded=0;" parent="1" edge="1">
          <mxGeometry relative="1" as="geometry">
            <mxPoint x="210" y="550" as="sourcePoint" />
            <mxPoint x="310" y="550" as="targetPoint" />
          </mxGeometry>
        </mxCell>
        <mxCell id="9kV_0fhqUF1c1HFAQR6I-17" value="data_7" style="edgeLabel;html=1;align=center;verticalAlign=middle;resizable=0;points=[];fontStyle=1;fontSize=12;" parent="9kV_0fhqUF1c1HFAQR6I-16" vertex="1" connectable="0">
          <mxGeometry x="-0.1467" y="-3" relative="1" as="geometry">
            <mxPoint y="-13" as="offset" />
          </mxGeometry>
        </mxCell>
        <mxCell id="9kV_0fhqUF1c1HFAQR6I-18" value="" style="endArrow=classic;html=1;rounded=0;" parent="1" edge="1">
          <mxGeometry relative="1" as="geometry">
            <mxPoint x="610" y="270" as="sourcePoint" />
            <mxPoint x="700" y="270" as="targetPoint" />
          </mxGeometry>
        </mxCell>
        <mxCell id="9kV_0fhqUF1c1HFAQR6I-19" value="cr_data_0" style="edgeLabel;html=1;align=center;verticalAlign=middle;resizable=0;points=[];fontStyle=1;fontSize=12;" parent="9kV_0fhqUF1c1HFAQR6I-18" vertex="1" connectable="0">
          <mxGeometry x="-0.1467" y="-3" relative="1" as="geometry">
            <mxPoint y="-13" as="offset" />
          </mxGeometry>
        </mxCell>
        <mxCell id="9kV_0fhqUF1c1HFAQR6I-20" value="" style="endArrow=classic;html=1;rounded=0;" parent="1" edge="1">
          <mxGeometry relative="1" as="geometry">
            <mxPoint x="610" y="310" as="sourcePoint" />
            <mxPoint x="700" y="310" as="targetPoint" />
          </mxGeometry>
        </mxCell>
        <mxCell id="9kV_0fhqUF1c1HFAQR6I-21" value="cr_data_1" style="edgeLabel;html=1;align=center;verticalAlign=middle;resizable=0;points=[];fontStyle=1;fontSize=12;" parent="9kV_0fhqUF1c1HFAQR6I-20" vertex="1" connectable="0">
          <mxGeometry x="-0.1467" y="-3" relative="1" as="geometry">
            <mxPoint y="-13" as="offset" />
          </mxGeometry>
        </mxCell>
        <mxCell id="9kV_0fhqUF1c1HFAQR6I-22" value="" style="endArrow=classic;html=1;rounded=0;" parent="1" edge="1">
          <mxGeometry relative="1" as="geometry">
            <mxPoint x="610" y="350" as="sourcePoint" />
            <mxPoint x="700" y="350" as="targetPoint" />
          </mxGeometry>
        </mxCell>
        <mxCell id="9kV_0fhqUF1c1HFAQR6I-23" value="cr_data_2" style="edgeLabel;html=1;align=center;verticalAlign=middle;resizable=0;points=[];fontStyle=1;fontSize=12;" parent="9kV_0fhqUF1c1HFAQR6I-22" vertex="1" connectable="0">
          <mxGeometry x="-0.1467" y="-3" relative="1" as="geometry">
            <mxPoint y="-13" as="offset" />
          </mxGeometry>
        </mxCell>
        <mxCell id="9kV_0fhqUF1c1HFAQR6I-24" value="" style="endArrow=classic;html=1;rounded=0;" parent="1" edge="1">
          <mxGeometry relative="1" as="geometry">
            <mxPoint x="610" y="390" as="sourcePoint" />
            <mxPoint x="700" y="390" as="targetPoint" />
          </mxGeometry>
        </mxCell>
        <mxCell id="9kV_0fhqUF1c1HFAQR6I-25" value="cr_data_3" style="edgeLabel;html=1;align=center;verticalAlign=middle;resizable=0;points=[];fontStyle=1;fontSize=12;" parent="9kV_0fhqUF1c1HFAQR6I-24" vertex="1" connectable="0">
          <mxGeometry x="-0.1467" y="-3" relative="1" as="geometry">
            <mxPoint y="-13" as="offset" />
          </mxGeometry>
        </mxCell>
        <mxCell id="9kV_0fhqUF1c1HFAQR6I-26" value="" style="endArrow=classic;html=1;rounded=0;" parent="1" edge="1">
          <mxGeometry relative="1" as="geometry">
            <mxPoint x="610" y="430" as="sourcePoint" />
            <mxPoint x="700" y="430" as="targetPoint" />
          </mxGeometry>
        </mxCell>
        <mxCell id="9kV_0fhqUF1c1HFAQR6I-27" value="cr_data_4" style="edgeLabel;html=1;align=center;verticalAlign=middle;resizable=0;points=[];fontStyle=1;fontSize=12;" parent="9kV_0fhqUF1c1HFAQR6I-26" vertex="1" connectable="0">
          <mxGeometry x="-0.1467" y="-3" relative="1" as="geometry">
            <mxPoint y="-13" as="offset" />
          </mxGeometry>
        </mxCell>
        <mxCell id="9kV_0fhqUF1c1HFAQR6I-28" value="" style="endArrow=classic;html=1;rounded=0;" parent="1" edge="1">
          <mxGeometry relative="1" as="geometry">
            <mxPoint x="610" y="470" as="sourcePoint" />
            <mxPoint x="700" y="470" as="targetPoint" />
          </mxGeometry>
        </mxCell>
        <mxCell id="9kV_0fhqUF1c1HFAQR6I-29" value="cr_data_5" style="edgeLabel;html=1;align=center;verticalAlign=middle;resizable=0;points=[];fontStyle=1;fontSize=12;" parent="9kV_0fhqUF1c1HFAQR6I-28" vertex="1" connectable="0">
          <mxGeometry x="-0.1467" y="-3" relative="1" as="geometry">
            <mxPoint y="-13" as="offset" />
          </mxGeometry>
        </mxCell>
        <mxCell id="9kV_0fhqUF1c1HFAQR6I-30" value="" style="endArrow=classic;html=1;rounded=0;" parent="1" edge="1">
          <mxGeometry relative="1" as="geometry">
            <mxPoint x="610" y="510" as="sourcePoint" />
            <mxPoint x="700" y="510" as="targetPoint" />
          </mxGeometry>
        </mxCell>
        <mxCell id="9kV_0fhqUF1c1HFAQR6I-31" value="cr_data_6" style="edgeLabel;html=1;align=center;verticalAlign=middle;resizable=0;points=[];fontStyle=1;fontSize=12;" parent="9kV_0fhqUF1c1HFAQR6I-30" vertex="1" connectable="0">
          <mxGeometry x="-0.1467" y="-3" relative="1" as="geometry">
            <mxPoint y="-13" as="offset" />
          </mxGeometry>
        </mxCell>
        <mxCell id="9kV_0fhqUF1c1HFAQR6I-32" value="" style="endArrow=classic;html=1;rounded=0;" parent="1" edge="1">
          <mxGeometry relative="1" as="geometry">
            <mxPoint x="610" y="550" as="sourcePoint" />
            <mxPoint x="700" y="550" as="targetPoint" />
          </mxGeometry>
        </mxCell>
        <mxCell id="9kV_0fhqUF1c1HFAQR6I-33" value="cr_data_7" style="edgeLabel;html=1;align=center;verticalAlign=middle;resizable=0;points=[];fontStyle=1;fontSize=12;" parent="9kV_0fhqUF1c1HFAQR6I-32" vertex="1" connectable="0">
          <mxGeometry x="-0.1467" y="-3" relative="1" as="geometry">
            <mxPoint y="-13" as="offset" />
          </mxGeometry>
        </mxCell>
        <mxCell id="9kV_0fhqUF1c1HFAQR6I-34" value="" style="endArrow=classic;html=1;rounded=0;entryX=0.25;entryY=0;entryDx=0;entryDy=0;" parent="1" edge="1" target="9kV_0fhqUF1c1HFAQR6I-1">
          <mxGeometry relative="1" as="geometry">
            <mxPoint x="385" y="140" as="sourcePoint" />
            <mxPoint x="399.9999999999999" y="220" as="targetPoint" />
          </mxGeometry>
        </mxCell>
        <mxCell id="9kV_0fhqUF1c1HFAQR6I-35" value="clk" style="edgeLabel;html=1;align=center;verticalAlign=middle;resizable=0;points=[];fontStyle=1;fontSize=12;" parent="9kV_0fhqUF1c1HFAQR6I-34" vertex="1" connectable="0">
          <mxGeometry x="-0.1467" y="-3" relative="1" as="geometry">
            <mxPoint x="3" y="6" as="offset" />
          </mxGeometry>
        </mxCell>
        <mxCell id="9kV_0fhqUF1c1HFAQR6I-36" value="" style="endArrow=classic;html=1;rounded=0;entryX=0.5;entryY=0;entryDx=0;entryDy=0;" parent="1" edge="1" target="9kV_0fhqUF1c1HFAQR6I-1">
          <mxGeometry relative="1" as="geometry">
            <mxPoint x="460" y="140" as="sourcePoint" />
            <mxPoint x="450" y="220" as="targetPoint" />
          </mxGeometry>
        </mxCell>
        <mxCell id="9kV_0fhqUF1c1HFAQR6I-37" value="clk" style="edgeLabel;html=1;align=center;verticalAlign=middle;resizable=0;points=[];fontStyle=1;fontSize=12;" parent="9kV_0fhqUF1c1HFAQR6I-36" vertex="1" connectable="0">
          <mxGeometry x="-0.1467" y="-3" relative="1" as="geometry">
            <mxPoint x="3" y="6" as="offset" />
          </mxGeometry>
        </mxCell>
        <mxCell id="9kV_0fhqUF1c1HFAQR6I-38" value="&lt;b&gt;&lt;font style=&quot;font-size: 12px;&quot;&gt;enable&lt;/font&gt;&lt;/b&gt;" style="edgeLabel;html=1;align=center;verticalAlign=middle;resizable=0;points=[];" parent="9kV_0fhqUF1c1HFAQR6I-36" vertex="1" connectable="0">
          <mxGeometry x="-0.025" y="2" relative="1" as="geometry">
            <mxPoint as="offset" />
          </mxGeometry>
        </mxCell>
        <mxCell id="9kV_0fhqUF1c1HFAQR6I-39" value="" style="endArrow=classic;html=1;rounded=0;entryX=0.75;entryY=0;entryDx=0;entryDy=0;" parent="1" edge="1" target="9kV_0fhqUF1c1HFAQR6I-1">
          <mxGeometry relative="1" as="geometry">
            <mxPoint x="535" y="140" as="sourcePoint" />
            <mxPoint x="499.9999999999999" y="220" as="targetPoint" />
          </mxGeometry>
        </mxCell>
        <mxCell id="9kV_0fhqUF1c1HFAQR6I-40" value="clk" style="edgeLabel;html=1;align=center;verticalAlign=middle;resizable=0;points=[];fontStyle=1;fontSize=12;" parent="9kV_0fhqUF1c1HFAQR6I-39" vertex="1" connectable="0">
          <mxGeometry x="-0.1467" y="-3" relative="1" as="geometry">
            <mxPoint x="3" y="6" as="offset" />
          </mxGeometry>
        </mxCell>
        <mxCell id="9kV_0fhqUF1c1HFAQR6I-41" value="&lt;b&gt;&lt;font style=&quot;font-size: 12px;&quot;&gt;code&lt;/font&gt;&lt;/b&gt;" style="edgeLabel;html=1;align=center;verticalAlign=middle;resizable=0;points=[];" parent="9kV_0fhqUF1c1HFAQR6I-39" vertex="1" connectable="0">
          <mxGeometry x="-0.025" y="2" relative="1" as="geometry">
            <mxPoint as="offset" />
          </mxGeometry>
        </mxCell>
      </root>
    </mxGraphModel>
  </diagram>
  <diagram id="DcRJehUWIWov4eIi07vO" name="ecc_encoder">
    <mxGraphModel dx="1082" dy="610" grid="1" gridSize="10" guides="1" tooltips="1" connect="1" arrows="1" fold="1" page="1" pageScale="1" pageWidth="827" pageHeight="1169" math="0" shadow="0">
      <root>
        <mxCell id="0" />
        <mxCell id="1" parent="0" />
        <mxCell id="z0puTvAtDQ5UHlxeMP87-1" value="&lt;b&gt;&lt;font style=&quot;font-size: 20px;&quot;&gt;ecc_encoder&lt;/font&gt;&lt;/b&gt;" style="rounded=1;whiteSpace=wrap;html=1;" vertex="1" parent="1">
          <mxGeometry x="240" y="220" width="290" height="400" as="geometry" />
        </mxCell>
        <mxCell id="z0puTvAtDQ5UHlxeMP87-2" value="" style="endArrow=classic;html=1;rounded=0;" edge="1" parent="1">
          <mxGeometry relative="1" as="geometry">
            <mxPoint x="140" y="270" as="sourcePoint" />
            <mxPoint x="240" y="270" as="targetPoint" />
          </mxGeometry>
        </mxCell>
        <mxCell id="z0puTvAtDQ5UHlxeMP87-3" value="data_0" style="edgeLabel;html=1;align=center;verticalAlign=middle;resizable=0;points=[];fontStyle=1;fontSize=12;" vertex="1" connectable="0" parent="z0puTvAtDQ5UHlxeMP87-2">
          <mxGeometry x="-0.1467" y="-3" relative="1" as="geometry">
            <mxPoint y="-13" as="offset" />
          </mxGeometry>
        </mxCell>
        <mxCell id="z0puTvAtDQ5UHlxeMP87-4" value="" style="endArrow=classic;html=1;rounded=0;" edge="1" parent="1">
          <mxGeometry relative="1" as="geometry">
            <mxPoint x="140" y="310" as="sourcePoint" />
            <mxPoint x="240" y="310" as="targetPoint" />
          </mxGeometry>
        </mxCell>
        <mxCell id="z0puTvAtDQ5UHlxeMP87-5" value="data_1" style="edgeLabel;html=1;align=center;verticalAlign=middle;resizable=0;points=[];fontStyle=1;fontSize=12;" vertex="1" connectable="0" parent="z0puTvAtDQ5UHlxeMP87-4">
          <mxGeometry x="-0.1467" y="-3" relative="1" as="geometry">
            <mxPoint y="-13" as="offset" />
          </mxGeometry>
        </mxCell>
        <mxCell id="z0puTvAtDQ5UHlxeMP87-6" value="" style="endArrow=classic;html=1;rounded=0;" edge="1" parent="1">
          <mxGeometry relative="1" as="geometry">
            <mxPoint x="140" y="350" as="sourcePoint" />
            <mxPoint x="240" y="350" as="targetPoint" />
          </mxGeometry>
        </mxCell>
        <mxCell id="z0puTvAtDQ5UHlxeMP87-7" value="data_2" style="edgeLabel;html=1;align=center;verticalAlign=middle;resizable=0;points=[];fontStyle=1;fontSize=12;" vertex="1" connectable="0" parent="z0puTvAtDQ5UHlxeMP87-6">
          <mxGeometry x="-0.1467" y="-3" relative="1" as="geometry">
            <mxPoint y="-13" as="offset" />
          </mxGeometry>
        </mxCell>
        <mxCell id="z0puTvAtDQ5UHlxeMP87-8" value="" style="endArrow=classic;html=1;rounded=0;" edge="1" parent="1">
          <mxGeometry relative="1" as="geometry">
            <mxPoint x="140" y="390" as="sourcePoint" />
            <mxPoint x="240" y="390" as="targetPoint" />
          </mxGeometry>
        </mxCell>
        <mxCell id="z0puTvAtDQ5UHlxeMP87-9" value="data_3" style="edgeLabel;html=1;align=center;verticalAlign=middle;resizable=0;points=[];fontStyle=1;fontSize=12;" vertex="1" connectable="0" parent="z0puTvAtDQ5UHlxeMP87-8">
          <mxGeometry x="-0.1467" y="-3" relative="1" as="geometry">
            <mxPoint y="-13" as="offset" />
          </mxGeometry>
        </mxCell>
        <mxCell id="z0puTvAtDQ5UHlxeMP87-10" value="" style="endArrow=classic;html=1;rounded=0;" edge="1" parent="1">
          <mxGeometry relative="1" as="geometry">
            <mxPoint x="140" y="430" as="sourcePoint" />
            <mxPoint x="240" y="430" as="targetPoint" />
          </mxGeometry>
        </mxCell>
        <mxCell id="z0puTvAtDQ5UHlxeMP87-11" value="data_4" style="edgeLabel;html=1;align=center;verticalAlign=middle;resizable=0;points=[];fontStyle=1;fontSize=12;" vertex="1" connectable="0" parent="z0puTvAtDQ5UHlxeMP87-10">
          <mxGeometry x="-0.1467" y="-3" relative="1" as="geometry">
            <mxPoint y="-13" as="offset" />
          </mxGeometry>
        </mxCell>
        <mxCell id="z0puTvAtDQ5UHlxeMP87-12" value="" style="endArrow=classic;html=1;rounded=0;" edge="1" parent="1">
          <mxGeometry relative="1" as="geometry">
            <mxPoint x="140" y="470" as="sourcePoint" />
            <mxPoint x="240" y="470" as="targetPoint" />
          </mxGeometry>
        </mxCell>
        <mxCell id="z0puTvAtDQ5UHlxeMP87-13" value="data_5" style="edgeLabel;html=1;align=center;verticalAlign=middle;resizable=0;points=[];fontStyle=1;fontSize=12;" vertex="1" connectable="0" parent="z0puTvAtDQ5UHlxeMP87-12">
          <mxGeometry x="-0.1467" y="-3" relative="1" as="geometry">
            <mxPoint y="-13" as="offset" />
          </mxGeometry>
        </mxCell>
        <mxCell id="z0puTvAtDQ5UHlxeMP87-14" value="" style="endArrow=classic;html=1;rounded=0;" edge="1" parent="1">
          <mxGeometry relative="1" as="geometry">
            <mxPoint x="140" y="510" as="sourcePoint" />
            <mxPoint x="240" y="510" as="targetPoint" />
          </mxGeometry>
        </mxCell>
        <mxCell id="z0puTvAtDQ5UHlxeMP87-15" value="data_6" style="edgeLabel;html=1;align=center;verticalAlign=middle;resizable=0;points=[];fontStyle=1;fontSize=12;" vertex="1" connectable="0" parent="z0puTvAtDQ5UHlxeMP87-14">
          <mxGeometry x="-0.1467" y="-3" relative="1" as="geometry">
            <mxPoint y="-13" as="offset" />
          </mxGeometry>
        </mxCell>
        <mxCell id="z0puTvAtDQ5UHlxeMP87-16" value="" style="endArrow=classic;html=1;rounded=0;" edge="1" parent="1">
          <mxGeometry relative="1" as="geometry">
            <mxPoint x="140" y="550" as="sourcePoint" />
            <mxPoint x="240" y="550" as="targetPoint" />
          </mxGeometry>
        </mxCell>
        <mxCell id="z0puTvAtDQ5UHlxeMP87-17" value="data_7" style="edgeLabel;html=1;align=center;verticalAlign=middle;resizable=0;points=[];fontStyle=1;fontSize=12;" vertex="1" connectable="0" parent="z0puTvAtDQ5UHlxeMP87-16">
          <mxGeometry x="-0.1467" y="-3" relative="1" as="geometry">
            <mxPoint y="-13" as="offset" />
          </mxGeometry>
        </mxCell>
        <mxCell id="z0puTvAtDQ5UHlxeMP87-18" value="" style="endArrow=classic;html=1;rounded=0;" edge="1" parent="1">
          <mxGeometry relative="1" as="geometry">
            <mxPoint x="530" y="419.38" as="sourcePoint" />
            <mxPoint x="620" y="419.38" as="targetPoint" />
          </mxGeometry>
        </mxCell>
        <mxCell id="z0puTvAtDQ5UHlxeMP87-19" value="&lt;span style=&quot;font-size: 12px;&quot;&gt;&lt;font style=&quot;font-size: 12px;&quot;&gt;code&lt;/font&gt;&lt;/span&gt;" style="edgeLabel;html=1;align=center;verticalAlign=middle;resizable=0;points=[];fontSize=12;fontStyle=1" vertex="1" connectable="0" parent="z0puTvAtDQ5UHlxeMP87-18">
          <mxGeometry x="-0.025" y="2" relative="1" as="geometry">
            <mxPoint y="-7" as="offset" />
          </mxGeometry>
        </mxCell>
      </root>
    </mxGraphModel>
  </diagram>
  <diagram id="Nljn4EiVXH3AwYqSFm3Q" name="port_rd_dispatch">
    <mxGraphModel dx="1008" dy="568" grid="1" gridSize="10" guides="1" tooltips="1" connect="1" arrows="1" fold="1" page="1" pageScale="1" pageWidth="827" pageHeight="1169" math="0" shadow="0">
      <root>
        <mxCell id="0" />
        <mxCell id="1" parent="0" />
        <mxCell id="Okl3Nm80jM_2VswUKz9_-1" value="&lt;span style=&quot;font-size: 20px;&quot;&gt;&lt;b&gt;port_rd_dispatch&lt;/b&gt;&lt;/span&gt;" style="rounded=1;whiteSpace=wrap;html=1;" vertex="1" parent="1">
          <mxGeometry x="310" y="250" width="240" height="340" as="geometry" />
        </mxCell>
        <mxCell id="Okl3Nm80jM_2VswUKz9_-2" value="" style="endArrow=classic;html=1;rounded=0;" edge="1" parent="1">
          <mxGeometry relative="1" as="geometry">
            <mxPoint x="210" y="350" as="sourcePoint" />
            <mxPoint x="310" y="350" as="targetPoint" />
          </mxGeometry>
        </mxCell>
        <mxCell id="Okl3Nm80jM_2VswUKz9_-3" value="clk" style="edgeLabel;html=1;align=center;verticalAlign=middle;resizable=0;points=[];fontStyle=1;fontSize=12;" vertex="1" connectable="0" parent="Okl3Nm80jM_2VswUKz9_-2">
          <mxGeometry x="-0.1467" y="-3" relative="1" as="geometry">
            <mxPoint y="-13" as="offset" />
          </mxGeometry>
        </mxCell>
        <mxCell id="Okl3Nm80jM_2VswUKz9_-4" value="" style="endArrow=classic;html=1;rounded=0;" edge="1" parent="1">
          <mxGeometry relative="1" as="geometry">
            <mxPoint x="210" y="390" as="sourcePoint" />
            <mxPoint x="310" y="390" as="targetPoint" />
          </mxGeometry>
        </mxCell>
        <mxCell id="Okl3Nm80jM_2VswUKz9_-5" value="rst_n" style="edgeLabel;html=1;align=center;verticalAlign=middle;resizable=0;points=[];fontStyle=1;fontSize=12;" vertex="1" connectable="0" parent="Okl3Nm80jM_2VswUKz9_-4">
          <mxGeometry x="-0.1467" y="-3" relative="1" as="geometry">
            <mxPoint y="-13" as="offset" />
          </mxGeometry>
        </mxCell>
        <mxCell id="Okl3Nm80jM_2VswUKz9_-6" value="" style="endArrow=classic;html=1;rounded=0;" edge="1" parent="1">
          <mxGeometry relative="1" as="geometry">
            <mxPoint x="210" y="430" as="sourcePoint" />
            <mxPoint x="310" y="430" as="targetPoint" />
          </mxGeometry>
        </mxCell>
        <mxCell id="Okl3Nm80jM_2VswUKz9_-7" value="wrr_en" style="edgeLabel;html=1;align=center;verticalAlign=middle;resizable=0;points=[];fontStyle=1;fontSize=12;" vertex="1" connectable="0" parent="Okl3Nm80jM_2VswUKz9_-6">
          <mxGeometry x="-0.1467" y="-3" relative="1" as="geometry">
            <mxPoint y="-13" as="offset" />
          </mxGeometry>
        </mxCell>
        <mxCell id="Okl3Nm80jM_2VswUKz9_-8" value="" style="endArrow=classic;html=1;rounded=0;" edge="1" parent="1">
          <mxGeometry relative="1" as="geometry">
            <mxPoint x="210" y="470" as="sourcePoint" />
            <mxPoint x="310" y="470" as="targetPoint" />
          </mxGeometry>
        </mxCell>
        <mxCell id="Okl3Nm80jM_2VswUKz9_-9" value="queue_empty" style="edgeLabel;html=1;align=center;verticalAlign=middle;resizable=0;points=[];fontStyle=1;fontSize=12;" vertex="1" connectable="0" parent="Okl3Nm80jM_2VswUKz9_-8">
          <mxGeometry x="-0.1467" y="-3" relative="1" as="geometry">
            <mxPoint y="-13" as="offset" />
          </mxGeometry>
        </mxCell>
        <mxCell id="Okl3Nm80jM_2VswUKz9_-10" value="" style="endArrow=classic;html=1;rounded=0;" edge="1" parent="1">
          <mxGeometry relative="1" as="geometry">
            <mxPoint x="210" y="510" as="sourcePoint" />
            <mxPoint x="310" y="510" as="targetPoint" />
          </mxGeometry>
        </mxCell>
        <mxCell id="Okl3Nm80jM_2VswUKz9_-11" value="update" style="edgeLabel;html=1;align=center;verticalAlign=middle;resizable=0;points=[];fontStyle=1;fontSize=12;" vertex="1" connectable="0" parent="Okl3Nm80jM_2VswUKz9_-10">
          <mxGeometry x="-0.1467" y="-3" relative="1" as="geometry">
            <mxPoint y="-13" as="offset" />
          </mxGeometry>
        </mxCell>
        <mxCell id="Okl3Nm80jM_2VswUKz9_-12" value="" style="endArrow=classic;html=1;rounded=0;" edge="1" parent="1">
          <mxGeometry relative="1" as="geometry">
            <mxPoint x="550" y="430" as="sourcePoint" />
            <mxPoint x="650" y="430" as="targetPoint" />
          </mxGeometry>
        </mxCell>
        <mxCell id="Okl3Nm80jM_2VswUKz9_-13" value="rd_prior" style="edgeLabel;html=1;align=center;verticalAlign=middle;resizable=0;points=[];fontStyle=1;fontSize=12;" vertex="1" connectable="0" parent="Okl3Nm80jM_2VswUKz9_-12">
          <mxGeometry x="-0.1467" y="-3" relative="1" as="geometry">
            <mxPoint y="-13" as="offset" />
          </mxGeometry>
        </mxCell>
      </root>
    </mxGraphModel>
  </diagram>
  <diagram name="port_rd_fronted" id="IGY3-wLs9GOJo81jbpK2">
    <mxGraphModel dx="1461" dy="823" grid="1" gridSize="10" guides="1" tooltips="1" connect="1" arrows="1" fold="1" page="1" pageScale="1" pageWidth="827" pageHeight="1169" math="0" shadow="0">
      <root>
        <mxCell id="0" />
        <mxCell id="1" parent="0" />
        <mxCell id="4k_BAH4Ap3cNZQAnBOqe-1" value="&lt;span style=&quot;font-size: 20px;&quot;&gt;&lt;b&gt;port_rd_fronted&lt;/b&gt;&lt;/span&gt;" style="rounded=1;whiteSpace=wrap;html=1;" vertex="1" parent="1">
          <mxGeometry x="250" y="350" width="250" height="350" as="geometry" />
        </mxCell>
        <mxCell id="4k_BAH4Ap3cNZQAnBOqe-2" value="" style="endArrow=classic;html=1;rounded=0;" edge="1" parent="1">
          <mxGeometry relative="1" as="geometry">
            <mxPoint x="150" y="470" as="sourcePoint" />
            <mxPoint x="250" y="470" as="targetPoint" />
          </mxGeometry>
        </mxCell>
        <mxCell id="4k_BAH4Ap3cNZQAnBOqe-3" value="clk" style="edgeLabel;html=1;align=center;verticalAlign=middle;resizable=0;points=[];fontStyle=1;fontSize=12;" vertex="1" connectable="0" parent="4k_BAH4Ap3cNZQAnBOqe-2">
          <mxGeometry x="-0.1467" y="-3" relative="1" as="geometry">
            <mxPoint y="-13" as="offset" />
          </mxGeometry>
        </mxCell>
        <mxCell id="4k_BAH4Ap3cNZQAnBOqe-4" value="" style="endArrow=classic;html=1;rounded=0;" edge="1" parent="1">
          <mxGeometry relative="1" as="geometry">
            <mxPoint x="150" y="510" as="sourcePoint" />
            <mxPoint x="250" y="510" as="targetPoint" />
          </mxGeometry>
        </mxCell>
        <mxCell id="4k_BAH4Ap3cNZQAnBOqe-5" value="xfer_data_vld" style="edgeLabel;html=1;align=center;verticalAlign=middle;resizable=0;points=[];fontStyle=1;fontSize=12;" vertex="1" connectable="0" parent="4k_BAH4Ap3cNZQAnBOqe-4">
          <mxGeometry x="-0.1467" y="-3" relative="1" as="geometry">
            <mxPoint y="-13" as="offset" />
          </mxGeometry>
        </mxCell>
        <mxCell id="4k_BAH4Ap3cNZQAnBOqe-6" value="" style="endArrow=classic;html=1;rounded=0;" edge="1" parent="1">
          <mxGeometry relative="1" as="geometry">
            <mxPoint x="150" y="550" as="sourcePoint" />
            <mxPoint x="250" y="550" as="targetPoint" />
          </mxGeometry>
        </mxCell>
        <mxCell id="4k_BAH4Ap3cNZQAnBOqe-7" value="xfer_data" style="edgeLabel;html=1;align=center;verticalAlign=middle;resizable=0;points=[];fontStyle=1;fontSize=12;" vertex="1" connectable="0" parent="4k_BAH4Ap3cNZQAnBOqe-6">
          <mxGeometry x="-0.1467" y="-3" relative="1" as="geometry">
            <mxPoint y="-13" as="offset" />
          </mxGeometry>
        </mxCell>
        <mxCell id="4k_BAH4Ap3cNZQAnBOqe-8" value="" style="endArrow=classic;html=1;rounded=0;" edge="1" parent="1">
          <mxGeometry relative="1" as="geometry">
            <mxPoint x="150" y="590" as="sourcePoint" />
            <mxPoint x="250" y="590" as="targetPoint" />
          </mxGeometry>
        </mxCell>
        <mxCell id="4k_BAH4Ap3cNZQAnBOqe-9" value="end_of_packet" style="edgeLabel;html=1;align=center;verticalAlign=middle;resizable=0;points=[];fontStyle=1;fontSize=12;" vertex="1" connectable="0" parent="4k_BAH4Ap3cNZQAnBOqe-8">
          <mxGeometry x="-0.1467" y="-3" relative="1" as="geometry">
            <mxPoint y="-13" as="offset" />
          </mxGeometry>
        </mxCell>
        <mxCell id="4k_BAH4Ap3cNZQAnBOqe-12" value="" style="endArrow=classic;html=1;rounded=0;" edge="1" parent="1">
          <mxGeometry relative="1" as="geometry">
            <mxPoint x="500" y="490" as="sourcePoint" />
            <mxPoint x="600" y="490" as="targetPoint" />
          </mxGeometry>
        </mxCell>
        <mxCell id="4k_BAH4Ap3cNZQAnBOqe-13" value="rd_prior" style="edgeLabel;html=1;align=center;verticalAlign=middle;resizable=0;points=[];fontStyle=1;fontSize=12;" vertex="1" connectable="0" parent="4k_BAH4Ap3cNZQAnBOqe-12">
          <mxGeometry x="-0.1467" y="-3" relative="1" as="geometry">
            <mxPoint y="-13" as="offset" />
          </mxGeometry>
        </mxCell>
        <mxCell id="4k_BAH4Ap3cNZQAnBOqe-15" value="" style="endArrow=classic;html=1;rounded=0;" edge="1" parent="1">
          <mxGeometry relative="1" as="geometry">
            <mxPoint x="500" y="530" as="sourcePoint" />
            <mxPoint x="600" y="530" as="targetPoint" />
          </mxGeometry>
        </mxCell>
        <mxCell id="4k_BAH4Ap3cNZQAnBOqe-16" value="rd_vld" style="edgeLabel;html=1;align=center;verticalAlign=middle;resizable=0;points=[];fontStyle=1;fontSize=12;" vertex="1" connectable="0" parent="4k_BAH4Ap3cNZQAnBOqe-15">
          <mxGeometry x="-0.1467" y="-3" relative="1" as="geometry">
            <mxPoint y="-13" as="offset" />
          </mxGeometry>
        </mxCell>
        <mxCell id="4k_BAH4Ap3cNZQAnBOqe-17" value="" style="endArrow=classic;html=1;rounded=0;" edge="1" parent="1">
          <mxGeometry relative="1" as="geometry">
            <mxPoint x="500" y="570" as="sourcePoint" />
            <mxPoint x="600" y="570" as="targetPoint" />
          </mxGeometry>
        </mxCell>
        <mxCell id="4k_BAH4Ap3cNZQAnBOqe-18" value="rd_data" style="edgeLabel;html=1;align=center;verticalAlign=middle;resizable=0;points=[];fontStyle=1;fontSize=12;" vertex="1" connectable="0" parent="4k_BAH4Ap3cNZQAnBOqe-17">
          <mxGeometry x="-0.1467" y="-3" relative="1" as="geometry">
            <mxPoint y="-13" as="offset" />
          </mxGeometry>
        </mxCell>
      </root>
    </mxGraphModel>
  </diagram>
  <diagram id="a6mzRXFgYtIbe9RDSm7K" name="port_wr_fronted">
    <mxGraphModel dx="1461" dy="823" grid="1" gridSize="10" guides="1" tooltips="1" connect="1" arrows="1" fold="1" page="1" pageScale="1" pageWidth="827" pageHeight="1169" math="0" shadow="0">
      <root>
        <mxCell id="0" />
        <mxCell id="1" parent="0" />
        <mxCell id="bCKFN4Ledh4VkEm4xxUK-1" value="&lt;span style=&quot;font-size: 20px;&quot;&gt;&lt;b&gt;port_wr_fronted&lt;/b&gt;&lt;/span&gt;" style="rounded=1;whiteSpace=wrap;html=1;" vertex="1" parent="1">
          <mxGeometry x="268" y="260" width="290" height="400" as="geometry" />
        </mxCell>
        <mxCell id="bCKFN4Ledh4VkEm4xxUK-2" value="" style="endArrow=classic;html=1;rounded=0;" edge="1" parent="1">
          <mxGeometry relative="1" as="geometry">
            <mxPoint x="168" y="330" as="sourcePoint" />
            <mxPoint x="268" y="330" as="targetPoint" />
          </mxGeometry>
        </mxCell>
        <mxCell id="bCKFN4Ledh4VkEm4xxUK-3" value="clk" style="edgeLabel;html=1;align=center;verticalAlign=middle;resizable=0;points=[];fontStyle=1;fontSize=12;" vertex="1" connectable="0" parent="bCKFN4Ledh4VkEm4xxUK-2">
          <mxGeometry x="-0.1467" y="-3" relative="1" as="geometry">
            <mxPoint y="-13" as="offset" />
          </mxGeometry>
        </mxCell>
        <mxCell id="bCKFN4Ledh4VkEm4xxUK-4" value="" style="endArrow=classic;html=1;rounded=0;" edge="1" parent="1">
          <mxGeometry relative="1" as="geometry">
            <mxPoint x="168" y="371" as="sourcePoint" />
            <mxPoint x="268" y="371" as="targetPoint" />
          </mxGeometry>
        </mxCell>
        <mxCell id="bCKFN4Ledh4VkEm4xxUK-5" value="rst_n" style="edgeLabel;html=1;align=center;verticalAlign=middle;resizable=0;points=[];fontStyle=1;fontSize=12;" vertex="1" connectable="0" parent="bCKFN4Ledh4VkEm4xxUK-4">
          <mxGeometry x="-0.1467" y="-3" relative="1" as="geometry">
            <mxPoint y="-13" as="offset" />
          </mxGeometry>
        </mxCell>
        <mxCell id="bCKFN4Ledh4VkEm4xxUK-6" value="" style="endArrow=classic;html=1;rounded=0;" edge="1" parent="1">
          <mxGeometry relative="1" as="geometry">
            <mxPoint x="168" y="412" as="sourcePoint" />
            <mxPoint x="268" y="412" as="targetPoint" />
          </mxGeometry>
        </mxCell>
        <mxCell id="bCKFN4Ledh4VkEm4xxUK-7" value="wr_sop" style="edgeLabel;html=1;align=center;verticalAlign=middle;resizable=0;points=[];fontStyle=1;fontSize=12;" vertex="1" connectable="0" parent="bCKFN4Ledh4VkEm4xxUK-6">
          <mxGeometry x="-0.1467" y="-3" relative="1" as="geometry">
            <mxPoint y="-13" as="offset" />
          </mxGeometry>
        </mxCell>
        <mxCell id="bCKFN4Ledh4VkEm4xxUK-8" value="" style="endArrow=classic;html=1;rounded=0;" edge="1" parent="1">
          <mxGeometry relative="1" as="geometry">
            <mxPoint x="168" y="453" as="sourcePoint" />
            <mxPoint x="268" y="453" as="targetPoint" />
          </mxGeometry>
        </mxCell>
        <mxCell id="bCKFN4Ledh4VkEm4xxUK-9" value="wr_eop" style="edgeLabel;html=1;align=center;verticalAlign=middle;resizable=0;points=[];fontStyle=1;fontSize=12;" vertex="1" connectable="0" parent="bCKFN4Ledh4VkEm4xxUK-8">
          <mxGeometry x="-0.1467" y="-3" relative="1" as="geometry">
            <mxPoint y="-13" as="offset" />
          </mxGeometry>
        </mxCell>
        <mxCell id="bCKFN4Ledh4VkEm4xxUK-10" value="" style="endArrow=classic;html=1;rounded=0;" edge="1" parent="1">
          <mxGeometry relative="1" as="geometry">
            <mxPoint x="168" y="494" as="sourcePoint" />
            <mxPoint x="268" y="494" as="targetPoint" />
          </mxGeometry>
        </mxCell>
        <mxCell id="bCKFN4Ledh4VkEm4xxUK-11" value="wr_vld" style="edgeLabel;html=1;align=center;verticalAlign=middle;resizable=0;points=[];fontStyle=1;fontSize=12;" vertex="1" connectable="0" parent="bCKFN4Ledh4VkEm4xxUK-10">
          <mxGeometry x="-0.1467" y="-3" relative="1" as="geometry">
            <mxPoint y="-13" as="offset" />
          </mxGeometry>
        </mxCell>
        <mxCell id="bCKFN4Ledh4VkEm4xxUK-12" value="" style="endArrow=classic;html=1;rounded=0;" edge="1" parent="1">
          <mxGeometry relative="1" as="geometry">
            <mxPoint x="168" y="535" as="sourcePoint" />
            <mxPoint x="268" y="535" as="targetPoint" />
          </mxGeometry>
        </mxCell>
        <mxCell id="bCKFN4Ledh4VkEm4xxUK-13" value="wr_data" style="edgeLabel;html=1;align=center;verticalAlign=middle;resizable=0;points=[];fontStyle=1;fontSize=12;" vertex="1" connectable="0" parent="bCKFN4Ledh4VkEm4xxUK-12">
          <mxGeometry x="-0.1467" y="-3" relative="1" as="geometry">
            <mxPoint y="-13" as="offset" />
          </mxGeometry>
        </mxCell>
        <mxCell id="bCKFN4Ledh4VkEm4xxUK-14" value="" style="endArrow=classic;html=1;rounded=0;" edge="1" parent="1">
          <mxGeometry relative="1" as="geometry">
            <mxPoint x="168" y="576" as="sourcePoint" />
            <mxPoint x="268" y="576" as="targetPoint" />
          </mxGeometry>
        </mxCell>
        <mxCell id="bCKFN4Ledh4VkEm4xxUK-15" value="match_suc" style="edgeLabel;html=1;align=center;verticalAlign=middle;resizable=0;points=[];fontStyle=1;fontSize=12;" vertex="1" connectable="0" parent="bCKFN4Ledh4VkEm4xxUK-14">
          <mxGeometry x="-0.1467" y="-3" relative="1" as="geometry">
            <mxPoint y="-13" as="offset" />
          </mxGeometry>
        </mxCell>
        <mxCell id="bCKFN4Ledh4VkEm4xxUK-18" value="" style="endArrow=classic;html=1;rounded=0;" edge="1" parent="1">
          <mxGeometry relative="1" as="geometry">
            <mxPoint x="558" y="315" as="sourcePoint" />
            <mxPoint x="658" y="315" as="targetPoint" />
          </mxGeometry>
        </mxCell>
        <mxCell id="bCKFN4Ledh4VkEm4xxUK-19" value="pause" style="edgeLabel;html=1;align=center;verticalAlign=middle;resizable=0;points=[];fontStyle=1;fontSize=12;" vertex="1" connectable="0" parent="bCKFN4Ledh4VkEm4xxUK-18">
          <mxGeometry x="-0.1467" y="-3" relative="1" as="geometry">
            <mxPoint y="-13" as="offset" />
          </mxGeometry>
        </mxCell>
        <mxCell id="bCKFN4Ledh4VkEm4xxUK-20" value="" style="endArrow=classic;html=1;rounded=0;" edge="1" parent="1">
          <mxGeometry relative="1" as="geometry">
            <mxPoint x="558" y="357" as="sourcePoint" />
            <mxPoint x="658" y="357" as="targetPoint" />
          </mxGeometry>
        </mxCell>
        <mxCell id="bCKFN4Ledh4VkEm4xxUK-21" value="ready_to_xfer" style="edgeLabel;html=1;align=center;verticalAlign=middle;resizable=0;points=[];fontStyle=1;fontSize=12;" vertex="1" connectable="0" parent="bCKFN4Ledh4VkEm4xxUK-20">
          <mxGeometry x="-0.1467" y="-3" relative="1" as="geometry">
            <mxPoint y="-13" as="offset" />
          </mxGeometry>
        </mxCell>
        <mxCell id="bCKFN4Ledh4VkEm4xxUK-22" value="" style="endArrow=classic;html=1;rounded=0;" edge="1" parent="1">
          <mxGeometry relative="1" as="geometry">
            <mxPoint x="558" y="400" as="sourcePoint" />
            <mxPoint x="658" y="400" as="targetPoint" />
          </mxGeometry>
        </mxCell>
        <mxCell id="bCKFN4Ledh4VkEm4xxUK-23" value="xfer_data_vld" style="edgeLabel;html=1;align=center;verticalAlign=middle;resizable=0;points=[];fontStyle=1;fontSize=12;" vertex="1" connectable="0" parent="bCKFN4Ledh4VkEm4xxUK-22">
          <mxGeometry x="-0.1467" y="-3" relative="1" as="geometry">
            <mxPoint y="-13" as="offset" />
          </mxGeometry>
        </mxCell>
        <mxCell id="bCKFN4Ledh4VkEm4xxUK-24" value="" style="endArrow=classic;html=1;rounded=0;" edge="1" parent="1">
          <mxGeometry relative="1" as="geometry">
            <mxPoint x="558" y="441" as="sourcePoint" />
            <mxPoint x="658" y="441" as="targetPoint" />
          </mxGeometry>
        </mxCell>
        <mxCell id="bCKFN4Ledh4VkEm4xxUK-25" value="xfer_data" style="edgeLabel;html=1;align=center;verticalAlign=middle;resizable=0;points=[];fontStyle=1;fontSize=12;" vertex="1" connectable="0" parent="bCKFN4Ledh4VkEm4xxUK-24">
          <mxGeometry x="-0.1467" y="-3" relative="1" as="geometry">
            <mxPoint y="-13" as="offset" />
          </mxGeometry>
        </mxCell>
        <mxCell id="bCKFN4Ledh4VkEm4xxUK-26" value="" style="endArrow=classic;html=1;rounded=0;" edge="1" parent="1">
          <mxGeometry relative="1" as="geometry">
            <mxPoint x="558" y="482" as="sourcePoint" />
            <mxPoint x="658" y="482" as="targetPoint" />
          </mxGeometry>
        </mxCell>
        <mxCell id="bCKFN4Ledh4VkEm4xxUK-27" value="end_of_packet" style="edgeLabel;html=1;align=center;verticalAlign=middle;resizable=0;points=[];fontStyle=1;fontSize=12;" vertex="1" connectable="0" parent="bCKFN4Ledh4VkEm4xxUK-26">
          <mxGeometry x="-0.1467" y="-3" relative="1" as="geometry">
            <mxPoint y="-13" as="offset" />
          </mxGeometry>
        </mxCell>
        <mxCell id="bCKFN4Ledh4VkEm4xxUK-28" value="" style="endArrow=classic;html=1;rounded=0;" edge="1" parent="1">
          <mxGeometry relative="1" as="geometry">
            <mxPoint x="558" y="524" as="sourcePoint" />
            <mxPoint x="658" y="524" as="targetPoint" />
          </mxGeometry>
        </mxCell>
        <mxCell id="bCKFN4Ledh4VkEm4xxUK-29" value="match_enable" style="edgeLabel;html=1;align=center;verticalAlign=middle;resizable=0;points=[];fontStyle=1;fontSize=12;" vertex="1" connectable="0" parent="bCKFN4Ledh4VkEm4xxUK-28">
          <mxGeometry x="-0.1467" y="-3" relative="1" as="geometry">
            <mxPoint y="-13" as="offset" />
          </mxGeometry>
        </mxCell>
        <mxCell id="bCKFN4Ledh4VkEm4xxUK-30" value="" style="endArrow=classic;html=1;rounded=0;" edge="1" parent="1">
          <mxGeometry relative="1" as="geometry">
            <mxPoint x="558" y="566" as="sourcePoint" />
            <mxPoint x="658" y="566" as="targetPoint" />
          </mxGeometry>
        </mxCell>
        <mxCell id="bCKFN4Ledh4VkEm4xxUK-31" value="new_dest_port" style="edgeLabel;html=1;align=center;verticalAlign=middle;resizable=0;points=[];fontStyle=1;fontSize=12;" vertex="1" connectable="0" parent="bCKFN4Ledh4VkEm4xxUK-30">
          <mxGeometry x="-0.1467" y="-3" relative="1" as="geometry">
            <mxPoint y="-13" as="offset" />
          </mxGeometry>
        </mxCell>
        <mxCell id="bCKFN4Ledh4VkEm4xxUK-32" value="" style="endArrow=classic;html=1;rounded=0;" edge="1" parent="1">
          <mxGeometry relative="1" as="geometry">
            <mxPoint x="558" y="607" as="sourcePoint" />
            <mxPoint x="658" y="607" as="targetPoint" />
          </mxGeometry>
        </mxCell>
        <mxCell id="bCKFN4Ledh4VkEm4xxUK-33" value="new_length" style="edgeLabel;html=1;align=center;verticalAlign=middle;resizable=0;points=[];fontStyle=1;fontSize=12;" vertex="1" connectable="0" parent="bCKFN4Ledh4VkEm4xxUK-32">
          <mxGeometry x="-0.1467" y="-3" relative="1" as="geometry">
            <mxPoint y="-13" as="offset" />
          </mxGeometry>
        </mxCell>
      </root>
    </mxGraphModel>
  </diagram>
  <diagram id="rDCKDCr1eZ8_tOZVibxv" name="port_wr_sram_matcher">
    <mxGraphModel dx="1270" dy="716" grid="1" gridSize="10" guides="1" tooltips="1" connect="1" arrows="1" fold="1" page="1" pageScale="1" pageWidth="827" pageHeight="1169" math="0" shadow="0">
      <root>
        <mxCell id="0" />
        <mxCell id="1" parent="0" />
        <mxCell id="rVHXStXFABeKMufO-ygl-1" value="&lt;span style=&quot;font-size: 20px;&quot;&gt;&lt;b&gt;port_wr_sram_matcher&lt;/b&gt;&lt;/span&gt;" style="rounded=1;whiteSpace=wrap;html=1;" vertex="1" parent="1">
          <mxGeometry x="310" y="230" width="280" height="380" as="geometry" />
        </mxCell>
        <mxCell id="rVHXStXFABeKMufO-ygl-2" value="" style="endArrow=classic;html=1;rounded=0;" edge="1" parent="1">
          <mxGeometry relative="1" as="geometry">
            <mxPoint x="210" y="279" as="sourcePoint" />
            <mxPoint x="310" y="279" as="targetPoint" />
          </mxGeometry>
        </mxCell>
        <mxCell id="rVHXStXFABeKMufO-ygl-3" value="clk" style="edgeLabel;html=1;align=center;verticalAlign=middle;resizable=0;points=[];fontStyle=1;fontSize=12;" vertex="1" connectable="0" parent="rVHXStXFABeKMufO-ygl-2">
          <mxGeometry x="-0.1467" y="-3" relative="1" as="geometry">
            <mxPoint y="-13" as="offset" />
          </mxGeometry>
        </mxCell>
        <mxCell id="rVHXStXFABeKMufO-ygl-4" value="" style="endArrow=classic;html=1;rounded=0;" edge="1" parent="1">
          <mxGeometry relative="1" as="geometry">
            <mxPoint x="210" y="322" as="sourcePoint" />
            <mxPoint x="310" y="322" as="targetPoint" />
          </mxGeometry>
        </mxCell>
        <mxCell id="rVHXStXFABeKMufO-ygl-5" value="rst_n" style="edgeLabel;html=1;align=center;verticalAlign=middle;resizable=0;points=[];fontStyle=1;fontSize=12;" vertex="1" connectable="0" parent="rVHXStXFABeKMufO-ygl-4">
          <mxGeometry x="-0.1467" y="-3" relative="1" as="geometry">
            <mxPoint y="-13" as="offset" />
          </mxGeometry>
        </mxCell>
        <mxCell id="rVHXStXFABeKMufO-ygl-6" value="" style="endArrow=classic;html=1;rounded=0;" edge="1" parent="1">
          <mxGeometry relative="1" as="geometry">
            <mxPoint x="210" y="371" as="sourcePoint" />
            <mxPoint x="310" y="371" as="targetPoint" />
          </mxGeometry>
        </mxCell>
        <mxCell id="rVHXStXFABeKMufO-ygl-7" value="match_threshold" style="edgeLabel;html=1;align=center;verticalAlign=middle;resizable=0;points=[];fontStyle=1;fontSize=12;" vertex="1" connectable="0" parent="rVHXStXFABeKMufO-ygl-6">
          <mxGeometry x="-0.1467" y="-3" relative="1" as="geometry">
            <mxPoint y="-13" as="offset" />
          </mxGeometry>
        </mxCell>
        <mxCell id="rVHXStXFABeKMufO-ygl-8" value="" style="endArrow=classic;html=1;rounded=0;" edge="1" parent="1">
          <mxGeometry relative="1" as="geometry">
            <mxPoint x="210" y="422" as="sourcePoint" />
            <mxPoint x="310" y="422" as="targetPoint" />
          </mxGeometry>
        </mxCell>
        <mxCell id="rVHXStXFABeKMufO-ygl-9" value="new_length" style="edgeLabel;html=1;align=center;verticalAlign=middle;resizable=0;points=[];fontStyle=1;fontSize=12;" vertex="1" connectable="0" parent="rVHXStXFABeKMufO-ygl-8">
          <mxGeometry x="-0.1467" y="-3" relative="1" as="geometry">
            <mxPoint y="-13" as="offset" />
          </mxGeometry>
        </mxCell>
        <mxCell id="rVHXStXFABeKMufO-ygl-10" value="" style="endArrow=classic;html=1;rounded=0;" edge="1" parent="1">
          <mxGeometry relative="1" as="geometry">
            <mxPoint x="210" y="471" as="sourcePoint" />
            <mxPoint x="310" y="471" as="targetPoint" />
          </mxGeometry>
        </mxCell>
        <mxCell id="rVHXStXFABeKMufO-ygl-11" value="match_enable" style="edgeLabel;html=1;align=center;verticalAlign=middle;resizable=0;points=[];fontStyle=1;fontSize=12;" vertex="1" connectable="0" parent="rVHXStXFABeKMufO-ygl-10">
          <mxGeometry x="-0.1467" y="-3" relative="1" as="geometry">
            <mxPoint y="-13" as="offset" />
          </mxGeometry>
        </mxCell>
        <mxCell id="rVHXStXFABeKMufO-ygl-12" value="" style="endArrow=classic;html=1;rounded=0;" edge="1" parent="1">
          <mxGeometry relative="1" as="geometry">
            <mxPoint x="210" y="520" as="sourcePoint" />
            <mxPoint x="310" y="520" as="targetPoint" />
          </mxGeometry>
        </mxCell>
        <mxCell id="rVHXStXFABeKMufO-ygl-13" value="matching_sram" style="edgeLabel;html=1;align=center;verticalAlign=middle;resizable=0;points=[];fontStyle=1;fontSize=12;" vertex="1" connectable="0" parent="rVHXStXFABeKMufO-ygl-12">
          <mxGeometry x="-0.1467" y="-3" relative="1" as="geometry">
            <mxPoint y="-13" as="offset" />
          </mxGeometry>
        </mxCell>
        <mxCell id="rVHXStXFABeKMufO-ygl-14" value="" style="endArrow=classic;html=1;rounded=0;" edge="1" parent="1">
          <mxGeometry relative="1" as="geometry">
            <mxPoint x="210" y="565" as="sourcePoint" />
            <mxPoint x="310" y="565" as="targetPoint" />
          </mxGeometry>
        </mxCell>
        <mxCell id="rVHXStXFABeKMufO-ygl-15" value="acessible" style="edgeLabel;html=1;align=center;verticalAlign=middle;resizable=0;points=[];fontStyle=1;fontSize=12;" vertex="1" connectable="0" parent="rVHXStXFABeKMufO-ygl-14">
          <mxGeometry x="-0.1467" y="-3" relative="1" as="geometry">
            <mxPoint y="-13" as="offset" />
          </mxGeometry>
        </mxCell>
        <mxCell id="rVHXStXFABeKMufO-ygl-20" value="" style="endArrow=classic;html=1;rounded=0;" edge="1" parent="1">
          <mxGeometry relative="1" as="geometry">
            <mxPoint x="590" y="370" as="sourcePoint" />
            <mxPoint x="720" y="370" as="targetPoint" />
          </mxGeometry>
        </mxCell>
        <mxCell id="rVHXStXFABeKMufO-ygl-21" value="match_suc" style="edgeLabel;html=1;align=center;verticalAlign=middle;resizable=0;points=[];fontStyle=1;fontSize=12;" vertex="1" connectable="0" parent="rVHXStXFABeKMufO-ygl-20">
          <mxGeometry x="-0.1467" y="-3" relative="1" as="geometry">
            <mxPoint x="4" y="-13" as="offset" />
          </mxGeometry>
        </mxCell>
        <mxCell id="rVHXStXFABeKMufO-ygl-22" value="" style="endArrow=classic;html=1;rounded=0;" edge="1" parent="1">
          <mxGeometry relative="1" as="geometry">
            <mxPoint x="590" y="420" as="sourcePoint" />
            <mxPoint x="720" y="420" as="targetPoint" />
          </mxGeometry>
        </mxCell>
        <mxCell id="rVHXStXFABeKMufO-ygl-23" value="matching_besy_sram" style="edgeLabel;html=1;align=center;verticalAlign=middle;resizable=0;points=[];fontStyle=1;fontSize=12;" vertex="1" connectable="0" parent="rVHXStXFABeKMufO-ygl-22">
          <mxGeometry x="-0.1467" y="-3" relative="1" as="geometry">
            <mxPoint x="11" y="-15" as="offset" />
          </mxGeometry>
        </mxCell>
        <mxCell id="rVHXStXFABeKMufO-ygl-24" value="" style="endArrow=classic;html=1;rounded=0;" edge="1" parent="1">
          <mxGeometry relative="1" as="geometry">
            <mxPoint x="590" y="470" as="sourcePoint" />
            <mxPoint x="720" y="470" as="targetPoint" />
          </mxGeometry>
        </mxCell>
        <mxCell id="rVHXStXFABeKMufO-ygl-25" value="update_matched_sram" style="edgeLabel;html=1;align=center;verticalAlign=middle;resizable=0;points=[];fontStyle=1;fontSize=12;" vertex="1" connectable="0" parent="rVHXStXFABeKMufO-ygl-24">
          <mxGeometry x="-0.1467" y="-3" relative="1" as="geometry">
            <mxPoint x="15" y="-15" as="offset" />
          </mxGeometry>
        </mxCell>
        <mxCell id="P-Z7yBs8pbg_egurUk_E-1" value="" style="endArrow=classic;html=1;rounded=0;entryX=0.103;entryY=0;entryDx=0;entryDy=0;entryPerimeter=0;" edge="1" parent="1">
          <mxGeometry relative="1" as="geometry">
            <mxPoint x="400" y="150" as="sourcePoint" />
            <mxPoint x="399.9999999999999" y="230" as="targetPoint" />
          </mxGeometry>
        </mxCell>
        <mxCell id="P-Z7yBs8pbg_egurUk_E-2" value="free_space&lt;span style=&quot;white-space: pre;&quot;&gt;&#x9;&lt;/span&gt;" style="edgeLabel;html=1;align=center;verticalAlign=middle;resizable=0;points=[];fontStyle=1;fontSize=12;" vertex="1" connectable="0" parent="P-Z7yBs8pbg_egurUk_E-1">
          <mxGeometry x="-0.1467" y="-3" relative="1" as="geometry">
            <mxPoint x="3" y="6" as="offset" />
          </mxGeometry>
        </mxCell>
        <mxCell id="P-Z7yBs8pbg_egurUk_E-9" value="" style="endArrow=classic;html=1;rounded=0;entryX=0.103;entryY=0;entryDx=0;entryDy=0;entryPerimeter=0;" edge="1" parent="1">
          <mxGeometry relative="1" as="geometry">
            <mxPoint x="500" y="150" as="sourcePoint" />
            <mxPoint x="499.9999999999999" y="230" as="targetPoint" />
          </mxGeometry>
        </mxCell>
        <mxCell id="P-Z7yBs8pbg_egurUk_E-10" value="packet_amount" style="edgeLabel;html=1;align=center;verticalAlign=middle;resizable=0;points=[];fontStyle=1;fontSize=12;" vertex="1" connectable="0" parent="P-Z7yBs8pbg_egurUk_E-9">
          <mxGeometry x="-0.1467" y="-3" relative="1" as="geometry">
            <mxPoint x="3" y="6" as="offset" />
          </mxGeometry>
        </mxCell>
      </root>
    </mxGraphModel>
  </diagram>
  <diagram id="gfn88NQFd2VBFfNbxcnh" name="sram_interface">
    <mxGraphModel dx="1218" dy="686" grid="1" gridSize="10" guides="1" tooltips="1" connect="1" arrows="1" fold="1" page="1" pageScale="1" pageWidth="827" pageHeight="1169" math="0" shadow="0">
      <root>
        <mxCell id="0" />
        <mxCell id="1" parent="0" />
        <mxCell id="f9PS7Bxdu4uu2BeW52YA-1" value="&lt;span style=&quot;font-size: 20px;&quot;&gt;&lt;b&gt;sram_interface&lt;/b&gt;&lt;/span&gt;" style="rounded=1;whiteSpace=wrap;html=1;" vertex="1" parent="1">
          <mxGeometry x="260" y="220" width="290" height="400" as="geometry" />
        </mxCell>
        <mxCell id="f9PS7Bxdu4uu2BeW52YA-2" value="" style="endArrow=classic;html=1;rounded=0;" edge="1" parent="1">
          <mxGeometry relative="1" as="geometry">
            <mxPoint x="160" y="485.5" as="sourcePoint" />
            <mxPoint x="260" y="485.5" as="targetPoint" />
          </mxGeometry>
        </mxCell>
        <mxCell id="f9PS7Bxdu4uu2BeW52YA-3" value="concatenate_tail" style="edgeLabel;html=1;align=center;verticalAlign=middle;resizable=0;points=[];fontStyle=1;fontSize=12;" vertex="1" connectable="0" parent="f9PS7Bxdu4uu2BeW52YA-2">
          <mxGeometry x="-0.1467" y="-3" relative="1" as="geometry">
            <mxPoint y="-13" as="offset" />
          </mxGeometry>
        </mxCell>
        <mxCell id="f9PS7Bxdu4uu2BeW52YA-10" value="" style="endArrow=classic;html=1;rounded=0;" edge="1" parent="1">
          <mxGeometry relative="1" as="geometry">
            <mxPoint x="160" y="266.5" as="sourcePoint" />
            <mxPoint x="260" y="266.5" as="targetPoint" />
          </mxGeometry>
        </mxCell>
        <mxCell id="f9PS7Bxdu4uu2BeW52YA-11" value="wr_xfer_data_vld" style="edgeLabel;html=1;align=center;verticalAlign=middle;resizable=0;points=[];fontStyle=1;fontSize=12;" vertex="1" connectable="0" parent="f9PS7Bxdu4uu2BeW52YA-10">
          <mxGeometry x="-0.1467" y="-3" relative="1" as="geometry">
            <mxPoint y="-13" as="offset" />
          </mxGeometry>
        </mxCell>
        <mxCell id="f9PS7Bxdu4uu2BeW52YA-12" value="" style="endArrow=classic;html=1;rounded=0;" edge="1" parent="1">
          <mxGeometry relative="1" as="geometry">
            <mxPoint x="160" y="307.5" as="sourcePoint" />
            <mxPoint x="260" y="307.5" as="targetPoint" />
          </mxGeometry>
        </mxCell>
        <mxCell id="f9PS7Bxdu4uu2BeW52YA-13" value="wr_xfer_data" style="edgeLabel;html=1;align=center;verticalAlign=middle;resizable=0;points=[];fontStyle=1;fontSize=12;" vertex="1" connectable="0" parent="f9PS7Bxdu4uu2BeW52YA-12">
          <mxGeometry x="-0.1467" y="-3" relative="1" as="geometry">
            <mxPoint y="-13" as="offset" />
          </mxGeometry>
        </mxCell>
        <mxCell id="f9PS7Bxdu4uu2BeW52YA-14" value="" style="endArrow=classic;html=1;rounded=0;" edge="1" parent="1">
          <mxGeometry relative="1" as="geometry">
            <mxPoint x="160" y="350.5" as="sourcePoint" />
            <mxPoint x="260" y="350.5" as="targetPoint" />
          </mxGeometry>
        </mxCell>
        <mxCell id="f9PS7Bxdu4uu2BeW52YA-15" value="wr_end_of_packet" style="edgeLabel;html=1;align=center;verticalAlign=middle;resizable=0;points=[];fontStyle=1;fontSize=12;" vertex="1" connectable="0" parent="f9PS7Bxdu4uu2BeW52YA-14">
          <mxGeometry x="-0.1467" y="-3" relative="1" as="geometry">
            <mxPoint y="-13" as="offset" />
          </mxGeometry>
        </mxCell>
        <mxCell id="f9PS7Bxdu4uu2BeW52YA-16" value="" style="endArrow=classic;html=1;rounded=0;" edge="1" parent="1">
          <mxGeometry relative="1" as="geometry">
            <mxPoint x="160" y="395.5" as="sourcePoint" />
            <mxPoint x="260" y="395.5" as="targetPoint" />
          </mxGeometry>
        </mxCell>
        <mxCell id="f9PS7Bxdu4uu2BeW52YA-17" value="concatenate_enable" style="edgeLabel;html=1;align=center;verticalAlign=middle;resizable=0;points=[];fontStyle=1;fontSize=12;" vertex="1" connectable="0" parent="f9PS7Bxdu4uu2BeW52YA-16">
          <mxGeometry x="-0.1467" y="-3" relative="1" as="geometry">
            <mxPoint y="-13" as="offset" />
          </mxGeometry>
        </mxCell>
        <mxCell id="f9PS7Bxdu4uu2BeW52YA-34" value="" style="endArrow=classic;html=1;rounded=0;entryX=0.103;entryY=0;entryDx=0;entryDy=0;entryPerimeter=0;" edge="1" parent="1">
          <mxGeometry relative="1" as="geometry">
            <mxPoint x="311" y="140" as="sourcePoint" />
            <mxPoint x="310.9999999999999" y="220" as="targetPoint" />
          </mxGeometry>
        </mxCell>
        <mxCell id="gOU0G3TzonKfI7C1Ev8w-2" value="clk" style="edgeLabel;html=1;align=center;verticalAlign=middle;resizable=0;points=[];fontStyle=1;fontSize=12;" vertex="1" connectable="0" parent="f9PS7Bxdu4uu2BeW52YA-34">
          <mxGeometry x="-0.0417" y="2" relative="1" as="geometry">
            <mxPoint x="-2" as="offset" />
          </mxGeometry>
        </mxCell>
        <mxCell id="f9PS7Bxdu4uu2BeW52YA-36" value="" style="endArrow=classic;html=1;rounded=0;entryX=0.103;entryY=0;entryDx=0;entryDy=0;entryPerimeter=0;" edge="1" parent="1">
          <mxGeometry relative="1" as="geometry">
            <mxPoint x="366" y="140" as="sourcePoint" />
            <mxPoint x="365.9999999999999" y="220" as="targetPoint" />
          </mxGeometry>
        </mxCell>
        <mxCell id="f9PS7Bxdu4uu2BeW52YA-37" value="clk" style="edgeLabel;html=1;align=center;verticalAlign=middle;resizable=0;points=[];fontStyle=1;fontSize=12;" vertex="1" connectable="0" parent="f9PS7Bxdu4uu2BeW52YA-36">
          <mxGeometry x="-0.1467" y="-3" relative="1" as="geometry">
            <mxPoint x="3" y="6" as="offset" />
          </mxGeometry>
        </mxCell>
        <mxCell id="f9PS7Bxdu4uu2BeW52YA-38" value="&lt;span style=&quot;font-size: 12px; font-weight: 700;&quot;&gt;rst_n&lt;/span&gt;" style="edgeLabel;html=1;align=center;verticalAlign=middle;resizable=0;points=[];" vertex="1" connectable="0" parent="f9PS7Bxdu4uu2BeW52YA-36">
          <mxGeometry x="-0.025" y="2" relative="1" as="geometry">
            <mxPoint as="offset" />
          </mxGeometry>
        </mxCell>
        <mxCell id="f9PS7Bxdu4uu2BeW52YA-39" value="" style="endArrow=classic;html=1;rounded=0;entryX=0.103;entryY=0;entryDx=0;entryDy=0;entryPerimeter=0;" edge="1" parent="1">
          <mxGeometry relative="1" as="geometry">
            <mxPoint x="427" y="140" as="sourcePoint" />
            <mxPoint x="426.9999999999999" y="220" as="targetPoint" />
          </mxGeometry>
        </mxCell>
        <mxCell id="f9PS7Bxdu4uu2BeW52YA-40" value="clk" style="edgeLabel;html=1;align=center;verticalAlign=middle;resizable=0;points=[];fontStyle=1;fontSize=12;" vertex="1" connectable="0" parent="f9PS7Bxdu4uu2BeW52YA-39">
          <mxGeometry x="-0.1467" y="-3" relative="1" as="geometry">
            <mxPoint x="3" y="6" as="offset" />
          </mxGeometry>
        </mxCell>
        <mxCell id="f9PS7Bxdu4uu2BeW52YA-41" value="&lt;b&gt;&lt;font style=&quot;font-size: 12px;&quot;&gt;time_stamp&lt;/font&gt;&lt;/b&gt;" style="edgeLabel;html=1;align=center;verticalAlign=middle;resizable=0;points=[];" vertex="1" connectable="0" parent="f9PS7Bxdu4uu2BeW52YA-39">
          <mxGeometry x="-0.025" y="2" relative="1" as="geometry">
            <mxPoint as="offset" />
          </mxGeometry>
        </mxCell>
        <mxCell id="f9PS7Bxdu4uu2BeW52YA-42" value="" style="endArrow=classic;html=1;rounded=0;entryX=0.103;entryY=0;entryDx=0;entryDy=0;entryPerimeter=0;" edge="1" parent="1">
          <mxGeometry relative="1" as="geometry">
            <mxPoint x="498" y="140" as="sourcePoint" />
            <mxPoint x="497.9999999999999" y="220" as="targetPoint" />
          </mxGeometry>
        </mxCell>
        <mxCell id="f9PS7Bxdu4uu2BeW52YA-43" value="clk" style="edgeLabel;html=1;align=center;verticalAlign=middle;resizable=0;points=[];fontStyle=1;fontSize=12;" vertex="1" connectable="0" parent="f9PS7Bxdu4uu2BeW52YA-42">
          <mxGeometry x="-0.1467" y="-3" relative="1" as="geometry">
            <mxPoint x="3" y="6" as="offset" />
          </mxGeometry>
        </mxCell>
        <mxCell id="f9PS7Bxdu4uu2BeW52YA-44" value="&lt;b&gt;&lt;font style=&quot;font-size: 12px;&quot;&gt;SRAM_IDX&lt;/font&gt;&lt;/b&gt;" style="edgeLabel;html=1;align=center;verticalAlign=middle;resizable=0;points=[];" vertex="1" connectable="0" parent="f9PS7Bxdu4uu2BeW52YA-42">
          <mxGeometry x="-0.025" y="2" relative="1" as="geometry">
            <mxPoint as="offset" />
          </mxGeometry>
        </mxCell>
        <mxCell id="gOU0G3TzonKfI7C1Ev8w-6" value="" style="endArrow=classic;html=1;rounded=0;" edge="1" parent="1">
          <mxGeometry relative="1" as="geometry">
            <mxPoint x="160" y="440.5" as="sourcePoint" />
            <mxPoint x="260" y="440.5" as="targetPoint" />
          </mxGeometry>
        </mxCell>
        <mxCell id="gOU0G3TzonKfI7C1Ev8w-7" value="concatenate_head" style="edgeLabel;html=1;align=center;verticalAlign=middle;resizable=0;points=[];fontStyle=1;fontSize=12;" vertex="1" connectable="0" parent="gOU0G3TzonKfI7C1Ev8w-6">
          <mxGeometry x="-0.1467" y="-3" relative="1" as="geometry">
            <mxPoint y="-13" as="offset" />
          </mxGeometry>
        </mxCell>
        <mxCell id="gOU0G3TzonKfI7C1Ev8w-8" value="" style="endArrow=classic;html=1;rounded=0;" edge="1" parent="1">
          <mxGeometry relative="1" as="geometry">
            <mxPoint x="160" y="527.5" as="sourcePoint" />
            <mxPoint x="260" y="527.5" as="targetPoint" />
          </mxGeometry>
        </mxCell>
        <mxCell id="gOU0G3TzonKfI7C1Ev8w-9" value="rd_page_down" style="edgeLabel;html=1;align=center;verticalAlign=middle;resizable=0;points=[];fontStyle=1;fontSize=12;" vertex="1" connectable="0" parent="gOU0G3TzonKfI7C1Ev8w-8">
          <mxGeometry x="-0.1467" y="-3" relative="1" as="geometry">
            <mxPoint y="-13" as="offset" />
          </mxGeometry>
        </mxCell>
        <mxCell id="gOU0G3TzonKfI7C1Ev8w-10" value="" style="endArrow=classic;html=1;rounded=0;" edge="1" parent="1">
          <mxGeometry relative="1" as="geometry">
            <mxPoint x="160" y="568.5" as="sourcePoint" />
            <mxPoint x="260" y="568.5" as="targetPoint" />
          </mxGeometry>
        </mxCell>
        <mxCell id="gOU0G3TzonKfI7C1Ev8w-11" value="rd_page" style="edgeLabel;html=1;align=center;verticalAlign=middle;resizable=0;points=[];fontStyle=1;fontSize=12;" vertex="1" connectable="0" parent="gOU0G3TzonKfI7C1Ev8w-10">
          <mxGeometry x="-0.1467" y="-3" relative="1" as="geometry">
            <mxPoint y="-13" as="offset" />
          </mxGeometry>
        </mxCell>
        <mxCell id="gOU0G3TzonKfI7C1Ev8w-12" value="" style="endArrow=classic;html=1;rounded=0;" edge="1" parent="1">
          <mxGeometry relative="1" as="geometry">
            <mxPoint x="550" y="485.5" as="sourcePoint" />
            <mxPoint x="650" y="485.5" as="targetPoint" />
          </mxGeometry>
        </mxCell>
        <mxCell id="gOU0G3TzonKfI7C1Ev8w-13" value="wr_packet_join_time_stamp" style="edgeLabel;html=1;align=center;verticalAlign=middle;resizable=0;points=[];fontStyle=1;fontSize=12;" vertex="1" connectable="0" parent="gOU0G3TzonKfI7C1Ev8w-12">
          <mxGeometry x="-0.1467" y="-3" relative="1" as="geometry">
            <mxPoint x="47" y="-16" as="offset" />
          </mxGeometry>
        </mxCell>
        <mxCell id="gOU0G3TzonKfI7C1Ev8w-14" value="" style="endArrow=classic;html=1;rounded=0;" edge="1" parent="1">
          <mxGeometry relative="1" as="geometry">
            <mxPoint x="550" y="266.5" as="sourcePoint" />
            <mxPoint x="650" y="266.5" as="targetPoint" />
          </mxGeometry>
        </mxCell>
        <mxCell id="gOU0G3TzonKfI7C1Ev8w-15" value="wr_packet_dest_port" style="edgeLabel;html=1;align=center;verticalAlign=middle;resizable=0;points=[];fontStyle=1;fontSize=12;" vertex="1" connectable="0" parent="gOU0G3TzonKfI7C1Ev8w-14">
          <mxGeometry x="-0.1467" y="-3" relative="1" as="geometry">
            <mxPoint x="27" y="-16" as="offset" />
          </mxGeometry>
        </mxCell>
        <mxCell id="gOU0G3TzonKfI7C1Ev8w-16" value="" style="endArrow=classic;html=1;rounded=0;" edge="1" parent="1">
          <mxGeometry relative="1" as="geometry">
            <mxPoint x="550" y="307.5" as="sourcePoint" />
            <mxPoint x="650" y="307.5" as="targetPoint" />
          </mxGeometry>
        </mxCell>
        <mxCell id="gOU0G3TzonKfI7C1Ev8w-17" value="wr_packet_prior" style="edgeLabel;html=1;align=center;verticalAlign=middle;resizable=0;points=[];fontStyle=1;fontSize=12;" vertex="1" connectable="0" parent="gOU0G3TzonKfI7C1Ev8w-16">
          <mxGeometry x="-0.1467" y="-3" relative="1" as="geometry">
            <mxPoint x="14" y="-16" as="offset" />
          </mxGeometry>
        </mxCell>
        <mxCell id="gOU0G3TzonKfI7C1Ev8w-18" value="" style="endArrow=classic;html=1;rounded=0;" edge="1" parent="1">
          <mxGeometry relative="1" as="geometry">
            <mxPoint x="550" y="350.5" as="sourcePoint" />
            <mxPoint x="650" y="350.5" as="targetPoint" />
          </mxGeometry>
        </mxCell>
        <mxCell id="gOU0G3TzonKfI7C1Ev8w-19" value="wr_packet_head_addr" style="edgeLabel;html=1;align=center;verticalAlign=middle;resizable=0;points=[];fontStyle=1;fontSize=12;" vertex="1" connectable="0" parent="gOU0G3TzonKfI7C1Ev8w-18">
          <mxGeometry x="-0.1467" y="-3" relative="1" as="geometry">
            <mxPoint x="31" y="-16" as="offset" />
          </mxGeometry>
        </mxCell>
        <mxCell id="gOU0G3TzonKfI7C1Ev8w-20" value="" style="endArrow=classic;html=1;rounded=0;" edge="1" parent="1">
          <mxGeometry relative="1" as="geometry">
            <mxPoint x="550" y="395.5" as="sourcePoint" />
            <mxPoint x="650" y="395.5" as="targetPoint" />
          </mxGeometry>
        </mxCell>
        <mxCell id="gOU0G3TzonKfI7C1Ev8w-21" value="wr_packet_tail_addr" style="edgeLabel;html=1;align=center;verticalAlign=middle;resizable=0;points=[];fontStyle=1;fontSize=12;" vertex="1" connectable="0" parent="gOU0G3TzonKfI7C1Ev8w-20">
          <mxGeometry x="-0.1467" y="-3" relative="1" as="geometry">
            <mxPoint x="25" y="-16" as="offset" />
          </mxGeometry>
        </mxCell>
        <mxCell id="gOU0G3TzonKfI7C1Ev8w-22" value="" style="endArrow=classic;html=1;rounded=0;" edge="1" parent="1">
          <mxGeometry relative="1" as="geometry">
            <mxPoint x="550" y="440.5" as="sourcePoint" />
            <mxPoint x="650" y="440.5" as="targetPoint" />
          </mxGeometry>
        </mxCell>
        <mxCell id="gOU0G3TzonKfI7C1Ev8w-23" value="wr_packet_join_request" style="edgeLabel;html=1;align=center;verticalAlign=middle;resizable=0;points=[];fontStyle=1;fontSize=12;" vertex="1" connectable="0" parent="gOU0G3TzonKfI7C1Ev8w-22">
          <mxGeometry x="-0.1467" y="-3" relative="1" as="geometry">
            <mxPoint x="36" y="-16" as="offset" />
          </mxGeometry>
        </mxCell>
        <mxCell id="gOU0G3TzonKfI7C1Ev8w-24" value="" style="endArrow=classic;html=1;rounded=0;" edge="1" parent="1">
          <mxGeometry relative="1" as="geometry">
            <mxPoint x="550" y="527.5" as="sourcePoint" />
            <mxPoint x="650" y="527.5" as="targetPoint" />
          </mxGeometry>
        </mxCell>
        <mxCell id="gOU0G3TzonKfI7C1Ev8w-25" value="rd_xfer_data_vld" style="edgeLabel;html=1;align=center;verticalAlign=middle;resizable=0;points=[];fontStyle=1;fontSize=12;" vertex="1" connectable="0" parent="gOU0G3TzonKfI7C1Ev8w-24">
          <mxGeometry x="-0.1467" y="-3" relative="1" as="geometry">
            <mxPoint x="15" y="-16" as="offset" />
          </mxGeometry>
        </mxCell>
        <mxCell id="gOU0G3TzonKfI7C1Ev8w-26" value="" style="endArrow=classic;html=1;rounded=0;" edge="1" parent="1">
          <mxGeometry relative="1" as="geometry">
            <mxPoint x="550" y="568.5" as="sourcePoint" />
            <mxPoint x="650" y="568.5" as="targetPoint" />
          </mxGeometry>
        </mxCell>
        <mxCell id="gOU0G3TzonKfI7C1Ev8w-27" value="rd_xfer_data" style="edgeLabel;html=1;align=center;verticalAlign=middle;resizable=0;points=[];fontStyle=1;fontSize=12;" vertex="1" connectable="0" parent="gOU0G3TzonKfI7C1Ev8w-26">
          <mxGeometry x="-0.1467" y="-3" relative="1" as="geometry">
            <mxPoint x="3" y="-16" as="offset" />
          </mxGeometry>
        </mxCell>
        <mxCell id="gOU0G3TzonKfI7C1Ev8w-29" value="" style="endArrow=classic;html=1;rounded=0;entryX=0.103;entryY=0;entryDx=0;entryDy=0;entryPerimeter=0;" edge="1" parent="1">
          <mxGeometry relative="1" as="geometry">
            <mxPoint x="330" y="620" as="sourcePoint" />
            <mxPoint x="329.9999999999999" y="700" as="targetPoint" />
          </mxGeometry>
        </mxCell>
        <mxCell id="gOU0G3TzonKfI7C1Ev8w-30" value="rd_next_page" style="edgeLabel;html=1;align=center;verticalAlign=middle;resizable=0;points=[];fontStyle=1;fontSize=12;" vertex="1" connectable="0" parent="gOU0G3TzonKfI7C1Ev8w-29">
          <mxGeometry x="-0.0417" y="2" relative="1" as="geometry">
            <mxPoint x="-2" as="offset" />
          </mxGeometry>
        </mxCell>
        <mxCell id="gOU0G3TzonKfI7C1Ev8w-31" value="" style="endArrow=classic;html=1;rounded=0;entryX=0.103;entryY=0;entryDx=0;entryDy=0;entryPerimeter=0;" edge="1" parent="1">
          <mxGeometry relative="1" as="geometry">
            <mxPoint x="414" y="620" as="sourcePoint" />
            <mxPoint x="413.9999999999999" y="700" as="targetPoint" />
          </mxGeometry>
        </mxCell>
        <mxCell id="gOU0G3TzonKfI7C1Ev8w-32" value="clk" style="edgeLabel;html=1;align=center;verticalAlign=middle;resizable=0;points=[];fontStyle=1;fontSize=12;" vertex="1" connectable="0" parent="gOU0G3TzonKfI7C1Ev8w-31">
          <mxGeometry x="-0.1467" y="-3" relative="1" as="geometry">
            <mxPoint x="3" y="6" as="offset" />
          </mxGeometry>
        </mxCell>
        <mxCell id="gOU0G3TzonKfI7C1Ev8w-33" value="&lt;span style=&quot;font-size: 12px;&quot;&gt;&lt;b&gt;rd_ecc_code&lt;/b&gt;&lt;/span&gt;" style="edgeLabel;html=1;align=center;verticalAlign=middle;resizable=0;points=[];" vertex="1" connectable="0" parent="gOU0G3TzonKfI7C1Ev8w-31">
          <mxGeometry x="-0.025" y="2" relative="1" as="geometry">
            <mxPoint as="offset" />
          </mxGeometry>
        </mxCell>
        <mxCell id="gOU0G3TzonKfI7C1Ev8w-37" value="" style="endArrow=classic;html=1;rounded=0;entryX=0.103;entryY=0;entryDx=0;entryDy=0;entryPerimeter=0;" edge="1" parent="1">
          <mxGeometry relative="1" as="geometry">
            <mxPoint x="498" y="620" as="sourcePoint" />
            <mxPoint x="497.9999999999999" y="700" as="targetPoint" />
          </mxGeometry>
        </mxCell>
        <mxCell id="gOU0G3TzonKfI7C1Ev8w-38" value="clk" style="edgeLabel;html=1;align=center;verticalAlign=middle;resizable=0;points=[];fontStyle=1;fontSize=12;" vertex="1" connectable="0" parent="gOU0G3TzonKfI7C1Ev8w-37">
          <mxGeometry x="-0.1467" y="-3" relative="1" as="geometry">
            <mxPoint x="3" y="6" as="offset" />
          </mxGeometry>
        </mxCell>
        <mxCell id="gOU0G3TzonKfI7C1Ev8w-39" value="&lt;span style=&quot;font-size: 12px;&quot;&gt;&lt;b&gt;free_space&lt;/b&gt;&lt;/span&gt;" style="edgeLabel;html=1;align=center;verticalAlign=middle;resizable=0;points=[];" vertex="1" connectable="0" parent="gOU0G3TzonKfI7C1Ev8w-37">
          <mxGeometry x="-0.025" y="2" relative="1" as="geometry">
            <mxPoint as="offset" />
          </mxGeometry>
        </mxCell>
      </root>
    </mxGraphModel>
  </diagram>
  <diagram id="otnFxJdDOuSPvHPnywhw" name="sram">
    <mxGraphModel dx="2087" dy="1176" grid="1" gridSize="10" guides="1" tooltips="1" connect="1" arrows="1" fold="1" page="1" pageScale="1" pageWidth="827" pageHeight="1169" math="0" shadow="0">
      <root>
        <mxCell id="0" />
        <mxCell id="1" parent="0" />
        <mxCell id="W1l1OSmjGkSxLuI9q76--1" value="&lt;span style=&quot;font-size: 20px;&quot;&gt;&lt;b&gt;sram&lt;/b&gt;&lt;/span&gt;" style="rounded=1;whiteSpace=wrap;html=1;" vertex="1" parent="1">
          <mxGeometry x="250" y="340" width="250" height="370" as="geometry" />
        </mxCell>
        <mxCell id="W1l1OSmjGkSxLuI9q76--2" value="" style="endArrow=classic;html=1;rounded=0;" edge="1" parent="1">
          <mxGeometry relative="1" as="geometry">
            <mxPoint x="150" y="414" as="sourcePoint" />
            <mxPoint x="250" y="414" as="targetPoint" />
          </mxGeometry>
        </mxCell>
        <mxCell id="W1l1OSmjGkSxLuI9q76--3" value="clk" style="edgeLabel;html=1;align=center;verticalAlign=middle;resizable=0;points=[];fontStyle=1;fontSize=12;" vertex="1" connectable="0" parent="W1l1OSmjGkSxLuI9q76--2">
          <mxGeometry x="-0.1467" y="-3" relative="1" as="geometry">
            <mxPoint y="-13" as="offset" />
          </mxGeometry>
        </mxCell>
        <mxCell id="W1l1OSmjGkSxLuI9q76--4" value="" style="endArrow=classic;html=1;rounded=0;" edge="1" parent="1">
          <mxGeometry relative="1" as="geometry">
            <mxPoint x="150" y="454" as="sourcePoint" />
            <mxPoint x="250" y="454" as="targetPoint" />
          </mxGeometry>
        </mxCell>
        <mxCell id="W1l1OSmjGkSxLuI9q76--5" value="rst_n" style="edgeLabel;html=1;align=center;verticalAlign=middle;resizable=0;points=[];fontStyle=1;fontSize=12;" vertex="1" connectable="0" parent="W1l1OSmjGkSxLuI9q76--4">
          <mxGeometry x="-0.1467" y="-3" relative="1" as="geometry">
            <mxPoint y="-13" as="offset" />
          </mxGeometry>
        </mxCell>
        <mxCell id="W1l1OSmjGkSxLuI9q76--6" value="" style="endArrow=classic;html=1;rounded=0;" edge="1" parent="1">
          <mxGeometry relative="1" as="geometry">
            <mxPoint x="150" y="494" as="sourcePoint" />
            <mxPoint x="250" y="494" as="targetPoint" />
          </mxGeometry>
        </mxCell>
        <mxCell id="W1l1OSmjGkSxLuI9q76--7" value="wr_en" style="edgeLabel;html=1;align=center;verticalAlign=middle;resizable=0;points=[];fontStyle=1;fontSize=12;" vertex="1" connectable="0" parent="W1l1OSmjGkSxLuI9q76--6">
          <mxGeometry x="-0.1467" y="-3" relative="1" as="geometry">
            <mxPoint y="-13" as="offset" />
          </mxGeometry>
        </mxCell>
        <mxCell id="W1l1OSmjGkSxLuI9q76--8" value="" style="endArrow=classic;html=1;rounded=0;" edge="1" parent="1">
          <mxGeometry relative="1" as="geometry">
            <mxPoint x="150" y="534" as="sourcePoint" />
            <mxPoint x="250" y="534" as="targetPoint" />
          </mxGeometry>
        </mxCell>
        <mxCell id="W1l1OSmjGkSxLuI9q76--9" value="wr_addr" style="edgeLabel;html=1;align=center;verticalAlign=middle;resizable=0;points=[];fontStyle=1;fontSize=12;" vertex="1" connectable="0" parent="W1l1OSmjGkSxLuI9q76--8">
          <mxGeometry x="-0.1467" y="-3" relative="1" as="geometry">
            <mxPoint y="-13" as="offset" />
          </mxGeometry>
        </mxCell>
        <mxCell id="W1l1OSmjGkSxLuI9q76--12" value="" style="endArrow=classic;html=1;rounded=0;" edge="1" parent="1">
          <mxGeometry relative="1" as="geometry">
            <mxPoint x="500" y="530" as="sourcePoint" />
            <mxPoint x="600" y="530" as="targetPoint" />
          </mxGeometry>
        </mxCell>
        <mxCell id="W1l1OSmjGkSxLuI9q76--13" value="dout" style="edgeLabel;html=1;align=center;verticalAlign=middle;resizable=0;points=[];fontStyle=1;fontSize=12;" vertex="1" connectable="0" parent="W1l1OSmjGkSxLuI9q76--12">
          <mxGeometry x="-0.1467" y="-3" relative="1" as="geometry">
            <mxPoint y="-13" as="offset" />
          </mxGeometry>
        </mxCell>
        <mxCell id="W1l1OSmjGkSxLuI9q76--16" value="" style="endArrow=classic;html=1;rounded=0;" edge="1" parent="1">
          <mxGeometry relative="1" as="geometry">
            <mxPoint x="150" y="574" as="sourcePoint" />
            <mxPoint x="250" y="574" as="targetPoint" />
          </mxGeometry>
        </mxCell>
        <mxCell id="W1l1OSmjGkSxLuI9q76--17" value="din" style="edgeLabel;html=1;align=center;verticalAlign=middle;resizable=0;points=[];fontStyle=1;fontSize=12;" vertex="1" connectable="0" parent="W1l1OSmjGkSxLuI9q76--16">
          <mxGeometry x="-0.1467" y="-3" relative="1" as="geometry">
            <mxPoint y="-13" as="offset" />
          </mxGeometry>
        </mxCell>
        <mxCell id="W1l1OSmjGkSxLuI9q76--18" value="" style="endArrow=classic;html=1;rounded=0;" edge="1" parent="1">
          <mxGeometry relative="1" as="geometry">
            <mxPoint x="150" y="614" as="sourcePoint" />
            <mxPoint x="250" y="614" as="targetPoint" />
          </mxGeometry>
        </mxCell>
        <mxCell id="W1l1OSmjGkSxLuI9q76--19" value="rd_en" style="edgeLabel;html=1;align=center;verticalAlign=middle;resizable=0;points=[];fontStyle=1;fontSize=12;" vertex="1" connectable="0" parent="W1l1OSmjGkSxLuI9q76--18">
          <mxGeometry x="-0.1467" y="-3" relative="1" as="geometry">
            <mxPoint y="-13" as="offset" />
          </mxGeometry>
        </mxCell>
        <mxCell id="W1l1OSmjGkSxLuI9q76--22" value="" style="endArrow=classic;html=1;rounded=0;" edge="1" parent="1">
          <mxGeometry relative="1" as="geometry">
            <mxPoint x="150" y="650" as="sourcePoint" />
            <mxPoint x="250" y="650" as="targetPoint" />
          </mxGeometry>
        </mxCell>
        <mxCell id="W1l1OSmjGkSxLuI9q76--23" value="rd_addr" style="edgeLabel;html=1;align=center;verticalAlign=middle;resizable=0;points=[];fontStyle=1;fontSize=12;" vertex="1" connectable="0" parent="W1l1OSmjGkSxLuI9q76--22">
          <mxGeometry x="-0.1467" y="-3" relative="1" as="geometry">
            <mxPoint y="-13" as="offset" />
          </mxGeometry>
        </mxCell>
      </root>
    </mxGraphModel>
  </diagram>
</mxfile>
